REM MD5 1557104974c37af6354fb684c62f9d24
FILE "Euro Demo 04-98 (Germany).bin" BINARY
  TRACK 01 MODE2/2352
    INDEX 01 00:00:00
  TRACK 02 AUDIO
    INDEX 00 06:57:27
    INDEX 01 06:59:27
  TRACK 03 AUDIO
    INDEX 00 08:55:12
    INDEX 01 08:57:12
  TRACK 04 AUDIO
    INDEX 00 14:31:10
    INDEX 01 14:33:10
  TRACK 05 AUDIO
    INDEX 00 14:43:25
    INDEX 01 14:45:25
REM LEADOUT 17:46:56
